<svg xmlns="http://www.w3.org/2000/svg" xmlns:xlink="http://www.w3.org/1999/xlink" width="500" zoomAndPan="magnify" viewBox="0 0 375 374.999991" height="500" preserveAspectRatio="xMidYMid meet" version="1.0"><path fill="#000000" d="M 118.71875 147.835938 C 116.546875 151.089844 115.824219 156.515625 116.003906 169.898438 C 116.003906 191.785156 115.28125 193.410156 106.417969 190.15625 C 100.632812 187.984375 99.363281 188.167969 95.023438 191.421875 C 83.8125 199.5625 77.121094 237.179688 84.714844 247.851562 C 92.128906 257.796875 110.398438 262.136719 124.867188 257.074219 C 133.910156 254 135.355469 247.667969 137.886719 200.105469 C 140.058594 163.027344 139.152344 154.347656 133.1875 147.835938 C 127.941406 142.046875 122.515625 142.046875 118.71875 147.835938 Z M 132.101562 152.355469 C 133.910156 155.972656 134.269531 164.472656 133.546875 191.242188 C 132.460938 228.5 130.109375 247.667969 126.132812 251.648438 C 124.683594 253.09375 118.71875 254.722656 112.929688 255.085938 C 88.511719 256.894531 80.738281 243.871094 88.152344 214.753906 C 92.671875 197.753906 102.257812 187.984375 108.40625 194.136719 C 109.492188 195.21875 112.207031 195.761719 114.558594 195.402344 C 118.71875 194.859375 118.898438 194.316406 119.800781 174.058594 C 120.34375 162.664062 121.429688 151.8125 122.335938 150.003906 C 124.324219 145.664062 129.027344 146.75 132.101562 152.355469 Z M 132.101562 152.355469 " fill-opacity="1" fill-rule="nonzero"/><path fill="#000000" d="M 42.9375 178.761719 C 32.808594 182.378906 27.925781 187.625 21.054688 202.09375 C 12.371094 219.816406 12.371094 231.574219 20.871094 240.074219 C 28.289062 247.488281 37.148438 249.476562 46.191406 245.679688 C 49.992188 244.234375 52.882812 243.691406 52.882812 244.777344 C 52.882812 245.859375 56.5 246.402344 61.566406 246.042969 L 70.066406 245.5 L 74.226562 230.125 C 79.46875 209.871094 81.277344 189.613281 78.203125 185.816406 C 76.9375 184.1875 74.042969 183.101562 71.875 183.464844 C 69.886719 183.644531 65.726562 182.199219 63.011719 179.847656 C 57.042969 175.324219 53.066406 174.964844 42.9375 178.761719 Z M 63.011719 183.464844 C 65.90625 185.816406 69.886719 187.261719 72.597656 186.902344 C 76.9375 186.359375 76.9375 186.359375 75.851562 199.199219 C 74.40625 217.648438 67.714844 240.617188 63.375 242.96875 C 58.492188 245.679688 57.585938 244.050781 59.9375 237.179688 C 62.652344 229.042969 61.023438 228.5 54.148438 235.007812 C 43.660156 244.957031 36.96875 246.765625 27.746094 242.0625 C 17.253906 236.636719 15.808594 222.347656 23.765625 205.710938 C 29.734375 193.050781 36.0625 185.816406 44.203125 182.199219 C 52.523438 178.582031 57.042969 178.941406 63.011719 183.464844 Z M 63.011719 183.464844 " fill-opacity="1" fill-rule="nonzero"/><path fill="#000000" d="M 171.890625 183.101562 C 156.699219 187.625 142.953125 206.253906 140.601562 225.605469 C 138.613281 242.242188 150.730469 255.265625 165.921875 252.734375 C 169.898438 252.011719 178.21875 251.648438 184.1875 251.828125 L 195.21875 252.011719 L 199.019531 237.902344 C 203.179688 222.167969 206.613281 204.445312 206.613281 198.296875 C 206.613281 192.871094 201.730469 188.167969 196.847656 188.890625 C 194.679688 189.070312 190.519531 187.625 187.804688 185.273438 C 182.378906 181.113281 179.847656 180.75 171.890625 183.101562 Z M 188.710938 189.253906 C 191.964844 191.964844 195.21875 193.230469 197.570312 192.6875 C 202.996094 191.242188 203.539062 195.21875 200.464844 213.304688 C 196.125 237.359375 192.6875 247.667969 188.527344 248.753906 C 183.644531 250.019531 182.558594 247.667969 185.09375 242.0625 C 188.527344 234.828125 185.816406 234.648438 178.761719 241.703125 C 167.550781 252.914062 154.164062 252.371094 146.929688 240.617188 C 142.410156 233.199219 142.410156 229.042969 146.929688 216.742188 C 152.175781 202.816406 160.316406 192.507812 169.175781 188.347656 C 179.125 183.828125 182.378906 184.007812 188.710938 189.253906 Z M 188.710938 189.253906 " fill-opacity="1" fill-rule="nonzero"/><path fill="#000000" d="M 280.949219 184.1875 C 276.96875 187.082031 276.789062 188.167969 277.875 198.113281 C 278.414062 203.902344 278.054688 218.550781 276.96875 230.488281 C 275.160156 250.203125 275.339844 252.371094 278.234375 255.628906 C 281.851562 259.605469 290.171875 260.148438 293.246094 256.53125 C 294.332031 255.265625 296.863281 245.679688 298.851562 235.550781 C 303.375 212.039062 303.917969 210.230469 307.171875 210.230469 C 310.246094 210.230469 310.609375 219.273438 307.894531 234.828125 C 303.734375 258.703125 303.554688 256.894531 309.523438 259.96875 C 314.769531 262.5 315.128906 262.5 317.664062 258.519531 C 319.289062 256.351562 322.546875 247.308594 325.078125 238.625 C 331.769531 215.476562 334.300781 210.230469 338.460938 210.230469 C 342.441406 210.230469 342.441406 209.507812 337.558594 239.894531 C 334.664062 257.253906 335.207031 259.0625 343.34375 259.0625 C 350.757812 259.0625 358.175781 234.105469 358.898438 205.53125 C 359.441406 190.519531 359.261719 189.792969 354.375 185.636719 C 346.960938 179.304688 339.726562 180.210938 330.140625 188.890625 C 326.164062 192.507812 326.164062 192.507812 321.28125 188.710938 C 315.671875 184.1875 310.789062 184.007812 303.734375 187.625 C 299.214844 189.976562 298.492188 189.792969 294.332031 185.636719 C 289.265625 180.570312 286.734375 180.210938 280.949219 184.1875 Z M 293.425781 194.136719 C 293.425781 202.636719 294.691406 202.816406 300.84375 195.945312 C 305.726562 190.335938 313.140625 187.445312 317.664062 189.070312 C 318.929688 189.613281 320.554688 192.507812 321.097656 195.582031 C 322.546875 202.273438 324.535156 202.636719 328.332031 196.847656 C 329.960938 194.496094 334.121094 190.699219 337.738281 188.527344 C 345.875 183.464844 352.566406 184.730469 354.195312 191.421875 C 357.269531 203.539062 350.21875 248.210938 344.25 254.179688 C 340.269531 258.160156 339.90625 253.277344 342.984375 234.46875 C 344.792969 223.976562 345.695312 213.304688 345.152344 210.957031 C 344.066406 206.976562 343.164062 206.433594 337.195312 206.976562 L 330.503906 207.519531 L 324.898438 224.699219 C 321.640625 234.105469 318.203125 245.320312 317.121094 249.476562 C 315.671875 254.542969 314.046875 257.253906 312.054688 257.253906 C 309.703125 257.253906 309.523438 255.808594 310.429688 249.476562 C 310.96875 245.320312 312.054688 235.007812 312.597656 226.507812 C 313.683594 213.125 313.320312 210.59375 310.609375 207.878906 C 307.894531 204.988281 306.992188 204.988281 303.554688 207.15625 C 300.660156 209.148438 298.671875 214.390625 295.234375 230.308594 C 290.171875 253.277344 289.265625 255.445312 284.382812 255.445312 C 279.683594 255.445312 278.957031 251.828125 280.765625 238.808594 C 281.671875 232.660156 282.574219 218.730469 282.574219 208.0625 C 282.574219 191.785156 283.117188 188.347656 285.648438 187.082031 C 290.714844 184.1875 293.425781 186.539062 293.425781 194.136719 Z M 293.425781 194.136719 " fill-opacity="1" fill-rule="nonzero"/><path fill="#000000" d="M 231.753906 189.070312 C 214.574219 198.113281 203.179688 229.042969 211.136719 244.59375 C 216.019531 254 231.753906 258.519531 241.519531 253.457031 C 244.414062 251.828125 245.5 251.828125 246.042969 253.457031 C 246.402344 254.542969 250.203125 255.445312 254.542969 255.445312 C 262.320312 255.445312 262.5 255.445312 265.214844 246.765625 C 269.011719 234.648438 273.53125 211.679688 273.53125 203.359375 C 273.53125 195.21875 271 192.144531 264.488281 192.144531 C 261.777344 192.144531 258.160156 190.519531 256.351562 188.527344 C 251.828125 183.644531 241.703125 183.828125 231.753906 189.070312 Z M 256.53125 192.328125 C 258.703125 194.679688 261.414062 195.761719 264.128906 195.21875 C 270.097656 194.136719 270.820312 197.570312 268.46875 214.574219 C 265.03125 237.722656 260.511719 250.746094 255.808594 251.46875 C 251.46875 252.191406 250.925781 250.746094 253.636719 243.871094 C 255.808594 237.902344 252.011719 237.359375 248.574219 242.96875 C 245.320312 248.210938 231.390625 254 225.605469 252.554688 C 218.371094 250.746094 212.039062 241.882812 212.039062 233.742188 C 212.039062 218.191406 224.519531 196.125 236.277344 191.0625 C 244.59375 187.445312 252.554688 187.984375 256.53125 192.328125 Z M 256.53125 192.328125 " fill-opacity="1" fill-rule="nonzero"/></svg>